<svg xmlns="http://www.w3.org/2000/svg" viewBox="0 0 400 450" fill="none">
  <!-- Shield outline -->
  <path d="M200 30 C200 30 340 70 340 70 C340 70 340 240 340 240 C340 340 200 400 200 400 C200 400 60 340 60 240 C60 240 60 70 60 70 Z" 
    stroke="rgba(255,255,255,0.25)" stroke-width="3" fill="none"/>
  <!-- Inner shield -->
  <path d="M200 50 C200 50 320 85 320 85 C320 85 320 235 320 235 C320 325 200 380 200 380 C200 380 80 325 80 235 C80 235 80 85 80 85 Z" 
    stroke="rgba(255,255,255,0.12)" stroke-width="1.5" fill="none"/>
  <!-- Green checkmark -->
  <path d="M130 210 L185 275 L290 140" stroke="#CCFF00" stroke-width="28" stroke-linecap="round" stroke-linejoin="round" fill="none"/>
</svg>